<?xml version="1.0" encoding="utf-8"?>
<!-- Generator: Adobe Illustrator 22.0.1, SVG Export Plug-In . SVG Version: 6.00 Build 0)  -->
<svg version="1.1" id="Слой_1" xmlns="http://www.w3.org/2000/svg" xmlns:xlink="http://www.w3.org/1999/xlink" x="0px" y="0px"
	 viewBox="0 0 475 475" style="enable-background:new 0 0 475 475;" xml:space="preserve">
<g>
	<g>
		<path d="M224.5,264.9h28.1c3.8,0,7-3.1,7-7c0-3.8-3.1-7-7-7h-28.1c-3.8,0-7,3.1-7,7C217.6,261.8,220.7,264.9,224.5,264.9z"/>
	</g>
	<g>
		<path d="M206.8,87.3c-2.9-2.5-7.3-2.2-9.8,0.8l-72.3,84.6c-2.5,2.9-2.2,7.3,0.8,9.8c1.3,1.1,2.9,1.7,4.5,1.7c2,0,3.9-0.8,5.3-2.4
			l72.3-84.6C210.1,94.2,209.7,89.8,206.8,87.3z"/>
		<path d="M125.4,137.9c1.3,1.2,3,1.8,4.6,1.8c1.9,0,3.8-0.8,5.2-2.3l19.5-22c2.6-2.9,2.3-7.3-0.6-9.8c-2.9-2.6-7.3-2.3-9.8,0.6
			l-19.5,22C122.2,130.9,122.5,135.3,125.4,137.9L125.4,137.9z"/>
		<path d="M411,388.7c-1.9-6-7.4-10-13.7-10H161.8c-3.8,0-7,3.1-7,7c0,3.8,3.1,7,7,7h235.5c0.2,0,0.3,0.1,0.4,0.3l21.4,67.7
			c0,0.1,0.1,0.2-0.1,0.4c-0.1,0.2-0.3,0.2-0.3,0.2H58.4c-0.1,0-0.2,0-0.3-0.2c-0.1-0.2-0.1-0.3-0.1-0.4l21.4-67.7
			c0.1-0.2,0.2-0.3,0.4-0.3h50.6c3.8,0,7-3.1,7-7c0-3.8-3.1-7-7-7H79.8c-6.3,0-11.8,4-13.7,10l-21.4,67.7c-1.4,4.4-0.6,9.1,2.1,12.8
			c2.7,3.7,6.9,5.9,11.6,5.9h360.4c4.6,0,8.8-2.1,11.6-5.9c2.7-3.7,3.5-8.4,2.1-12.8L411,388.7z"/>
		<path d="M422.4,0H54.8C39.5,0,27,12.5,27,27.8v235.8c0,15.4,12.5,27.8,27.8,27.8h136.7c-0.5,14-1.9,37.2-4.8,50.2h-30
			c-3.8,0-7,3.1-7,7c0,3.8,3.1,7,7,7h163.8c3.8,0,7-3.1,7-7c0-3.8-3.1-7-7-7h-30c-3-13-4.4-36.2-4.8-50.2h136.7
			c15.4,0,27.8-12.5,27.8-27.8V27.8C450.2,12.5,437.7,0,422.4,0z M200.9,341.7c3.1-15.7,4.2-38.8,4.6-50.2h66.3
			c0.4,11.4,1.5,34.5,4.6,50.2H200.9z M436.3,263.6c0,7.7-6.2,13.9-13.9,13.9H54.8c-7.7,0-13.9-6.2-13.9-13.9v-25.2h395.4
			L436.3,263.6L436.3,263.6z M436.3,224.5H418V121.7c0-3.8-3.1-7-7-7c-3.8,0-7,3.1-7,7v102.8H73.1V47.2c0-1,0.8-1.8,1.8-1.8h327.3
			c1,0,1.8,0.8,1.8,1.8v42.7c0,3.8,3.1,7,7,7c3.8,0,7-3.1,7-7V47.2c0-8.7-7.1-15.8-15.8-15.8H75c-8.7,0-15.8,7.1-15.8,15.8v177.3
			H40.9V27.8c0-7.7,6.2-13.9,13.9-13.9h367.5c7.7,0,13.9,6.2,13.9,13.9V224.5z"/>
		<path d="M130.4,407.4H121c-3.8,0-7,3.1-7,7c0,3.8,3.1,7,7,7h9.4c3.8,0,7-3.1,7-7C137.4,410.5,134.3,407.4,130.4,407.4z"/>
		<path d="M158.7,421.3h9.4c3.8,0,7-3.1,7-7c0-3.8-3.1-7-7-7h-9.4c-3.8,0-7,3.1-7,7C151.8,418.2,154.9,421.3,158.7,421.3z"/>
		<path d="M196.5,421.3h9.4c3.8,0,7-3.1,7-7c0-3.8-3.1-7-7-7h-9.4c-3.8,0-7,3.1-7,7C189.6,418.2,192.7,421.3,196.5,421.3z"/>
		<path d="M234.3,421.3h9.4c3.8,0,7-3.1,7-7c0-3.8-3.1-7-7-7h-9.4c-3.8,0-7,3.1-7,7C227.4,418.2,230.5,421.3,234.3,421.3
			L234.3,421.3z"/>
		<path d="M272.1,421.3h9.4c3.8,0,7-3.1,7-7c0-3.8-3.1-7-7-7h-9.4c-3.8,0-7,3.1-7,7C265.1,418.2,268.3,421.3,272.1,421.3z"/>
		<path d="M309.9,421.3h9.4c3.8,0,7-3.1,7-7c0-3.8-3.1-7-7-7h-9.4c-3.8,0-7,3.1-7,7C302.9,418.2,306,421.3,309.9,421.3z"/>
		<path d="M346.8,421.3h9.4c3.8,0,7-3.1,7-7c0-3.8-3.1-7-7-7h-9.4c-3.8,0-7,3.1-7,7C339.8,418.2,342.9,421.3,346.8,421.3z"/>
		<path d="M130.4,432.3H121c-3.8,0-7,3.1-7,7c0,3.8,3.1,7,7,7h9.4c3.8,0,7-3.1,7-7C137.4,435.5,134.3,432.3,130.4,432.3z"/>
		<path d="M158.7,446.3h9.4c3.8,0,7-3.1,7-7c0-3.8-3.1-7-7-7h-9.4c-3.8,0-7,3.1-7,7C151.8,443.1,154.9,446.3,158.7,446.3z"/>
		<path d="M196.5,446.3h9.4c3.8,0,7-3.1,7-7c0-3.8-3.1-7-7-7h-9.4c-3.8,0-7,3.1-7,7C189.6,443.1,192.7,446.3,196.5,446.3z"/>
		<path d="M234.3,446.3h9.4c3.8,0,7-3.1,7-7c0-3.8-3.1-7-7-7h-9.4c-3.8,0-7,3.1-7,7C227.4,443.1,230.5,446.3,234.3,446.3
			L234.3,446.3z"/>
		<path d="M272.1,446.3h9.4c3.8,0,7-3.1,7-7c0-3.8-3.1-7-7-7h-9.4c-3.8,0-7,3.1-7,7C265.1,443.1,268.3,446.3,272.1,446.3z"/>
		<path d="M309.9,446.3h9.4c3.8,0,7-3.1,7-7c0-3.8-3.1-7-7-7h-9.4c-3.8,0-7,3.1-7,7C302.9,443.1,306,446.3,309.9,446.3z"/>
		<path d="M346.8,446.3h9.4c3.8,0,7-3.1,7-7c0-3.8-3.1-7-7-7h-9.4c-3.8,0-7,3.1-7,7C339.8,443.1,342.9,446.3,346.8,446.3z"/>
	</g>
</g>
</svg>
