<?xml version="1.0" encoding="utf-8"?>
<!-- Generator: Adobe Illustrator 22.0.1, SVG Export Plug-In . SVG Version: 6.00 Build 0)  -->
<svg version="1.1" id="Слой_1" xmlns="http://www.w3.org/2000/svg" xmlns:xlink="http://www.w3.org/1999/xlink" x="0px" y="0px"
	 viewBox="0 0 320 320" style="enable-background:new 0 0 320 320;" xml:space="preserve">
<g>
	<g>
		<path d="M149.3,178.4h18.9c2.6,0,4.7-2.1,4.7-4.7s-2.1-4.7-4.7-4.7h-18.9c-2.6,0-4.7,2.1-4.7,4.7S146.7,178.4,149.3,178.4z"/>
	</g>
	<g>
		<path d="M137.4,59.4c-2-1.7-4.9-1.4-6.6,0.5l-48.4,56.7c-1.7,2-1.4,4.9,0.5,6.6c0.9,0.8,2,1.1,3,1.1c1.3,0,2.6-0.6,3.5-1.6
			L137.9,66C139.6,64,139.4,61.1,137.4,59.4z"/>
		<path d="M82.9,93.3c0.9,0.8,2,1.2,3.1,1.2c1.3,0,2.6-0.5,3.5-1.6l13.1-14.7c1.7-1.9,1.5-4.9-0.4-6.6c-1.9-1.7-4.9-1.5-6.6,0.4
			L82.5,86.7C80.8,88.6,81,91.6,82.9,93.3L82.9,93.3z"/>
		<path d="M274.2,261.2c-1.3-4-4.9-6.7-9.1-6.7H107.3c-2.6,0-4.7,2.1-4.7,4.7c0,2.6,2.1,4.7,4.7,4.7H265c0.1,0,0.2,0.1,0.3,0.2
			l14.4,45.3c0,0,0,0.1,0,0.2c-0.1,0.1-0.2,0.1-0.2,0.1H38c0,0-0.1,0-0.2-0.1c-0.1-0.1-0.1-0.2,0-0.2l14.4-45.3
			c0-0.1,0.1-0.2,0.3-0.2h33.9c2.6,0,4.7-2.1,4.7-4.7c0-2.6-2.1-4.7-4.7-4.7H52.4c-4.2,0-7.9,2.7-9.1,6.7l-14.4,45.3
			c-0.9,2.9-0.4,6.1,1.4,8.6c1.8,2.5,4.6,3.9,7.7,3.9h241.4c3.1,0,5.9-1.4,7.7-3.9s2.3-5.6,1.4-8.6L274.2,261.2z"/>
		<path d="M281.8,1H35.6C25.4,1,17,9.3,17,19.6v157.9c0,10.3,8.4,18.6,18.6,18.6h91.5c-0.3,9.4-1.2,24.9-3.2,33.6h-20.1
			c-2.6,0-4.7,2.1-4.7,4.7s2.1,4.7,4.7,4.7h109.7c2.6,0,4.7-2.1,4.7-4.7s-2.1-4.7-4.7-4.7h-20.1c-2-8.7-2.9-24.3-3.2-33.6h91.5
			c10.3,0,18.6-8.4,18.6-18.6V19.6C300.4,9.3,292,1,281.8,1z M133.5,229.8c2.1-10.5,2.8-26,3.1-33.6h44.4c0.3,7.6,1,23.1,3.1,33.6
			H133.5z M291.1,177.5c0,5.1-4.2,9.3-9.3,9.3H35.6c-5.1,0-9.3-4.2-9.3-9.3v-16.9h264.8L291.1,177.5L291.1,177.5z M291.1,151.3
			h-12.2V82.5c0-2.6-2.1-4.7-4.7-4.7c-2.6,0-4.7,2.1-4.7,4.7v68.8H47.9V32.6c0-0.7,0.6-1.2,1.2-1.2h219.2c0.7,0,1.2,0.6,1.2,1.2
			v28.6c0,2.6,2.1,4.7,4.7,4.7c2.6,0,4.7-2.1,4.7-4.7V32.6c0-5.8-4.7-10.6-10.6-10.6H49.1c-5.8,0-10.6,4.7-10.6,10.6v118.7H26.3
			V19.6c0-5.1,4.2-9.3,9.3-9.3h246.1c5.1,0,9.3,4.2,9.3,9.3V151.3z"/>
		<path d="M86.3,273.8h-6.3c-2.6,0-4.7,2.1-4.7,4.7s2.1,4.7,4.7,4.7h6.3c2.6,0,4.7-2.1,4.7-4.7S88.8,273.8,86.3,273.8z"/>
		<path d="M105.2,283.1h6.3c2.6,0,4.7-2.1,4.7-4.7s-2.1-4.7-4.7-4.7h-6.3c-2.6,0-4.7,2.1-4.7,4.7S102.7,283.1,105.2,283.1z"/>
		<path d="M130.5,283.1h6.3c2.6,0,4.7-2.1,4.7-4.7s-2.1-4.7-4.7-4.7h-6.3c-2.6,0-4.7,2.1-4.7,4.7S128,283.1,130.5,283.1z"/>
		<path d="M155.8,283.1h6.3c2.6,0,4.7-2.1,4.7-4.7s-2.1-4.7-4.7-4.7h-6.3c-2.6,0-4.7,2.1-4.7,4.7S153.3,283.1,155.8,283.1
			L155.8,283.1z"/>
		<path d="M181.1,283.1h6.3c2.6,0,4.7-2.1,4.7-4.7s-2.1-4.7-4.7-4.7h-6.3c-2.6,0-4.7,2.1-4.7,4.7S178.6,283.1,181.1,283.1z"/>
		<path d="M206.5,283.1h6.3c2.6,0,4.7-2.1,4.7-4.7s-2.1-4.7-4.7-4.7h-6.3c-2.6,0-4.7,2.1-4.7,4.7S203.9,283.1,206.5,283.1z"/>
		<path d="M231.2,283.1h6.3c2.6,0,4.7-2.1,4.7-4.7s-2.1-4.7-4.7-4.7h-6.3c-2.6,0-4.7,2.1-4.7,4.7S228.6,283.1,231.2,283.1z"/>
		<path d="M86.3,290.5h-6.3c-2.6,0-4.7,2.1-4.7,4.7c0,2.6,2.1,4.7,4.7,4.7h6.3c2.6,0,4.7-2.1,4.7-4.7
			C90.9,292.6,88.8,290.5,86.3,290.5z"/>
		<path d="M105.2,299.8h6.3c2.6,0,4.7-2.1,4.7-4.7c0-2.6-2.1-4.7-4.7-4.7h-6.3c-2.6,0-4.7,2.1-4.7,4.7
			C100.6,297.7,102.7,299.8,105.2,299.8z"/>
		<path d="M130.5,299.8h6.3c2.6,0,4.7-2.1,4.7-4.7c0-2.6-2.1-4.7-4.7-4.7h-6.3c-2.6,0-4.7,2.1-4.7,4.7
			C125.9,297.7,128,299.8,130.5,299.8z"/>
		<path d="M155.8,299.8h6.3c2.6,0,4.7-2.1,4.7-4.7c0-2.6-2.1-4.7-4.7-4.7h-6.3c-2.6,0-4.7,2.1-4.7,4.7
			C151.2,297.7,153.3,299.8,155.8,299.8L155.8,299.8z"/>
		<path d="M181.1,299.8h6.3c2.6,0,4.7-2.1,4.7-4.7c0-2.6-2.1-4.7-4.7-4.7h-6.3c-2.6,0-4.7,2.1-4.7,4.7
			C176.5,297.7,178.6,299.8,181.1,299.8z"/>
		<path d="M206.5,299.8h6.3c2.6,0,4.7-2.1,4.7-4.7c0-2.6-2.1-4.7-4.7-4.7h-6.3c-2.6,0-4.7,2.1-4.7,4.7
			C201.8,297.7,203.9,299.8,206.5,299.8z"/>
		<path d="M231.2,299.8h6.3c2.6,0,4.7-2.1,4.7-4.7c0-2.6-2.1-4.7-4.7-4.7h-6.3c-2.6,0-4.7,2.1-4.7,4.7
			C226.5,297.7,228.6,299.8,231.2,299.8z"/>
	</g>
</g>
</svg>
